<svg width="300" height="300" viewBox="0 0 300 300" fill="none" xmlns="http://www.w3.org/2000/svg">
<path d="M147.504 21.4773C146.599 23.2868 139.27 37.9892 131.263 54.1844C123.256 70.3344 111.223 94.6725 104.528 108.244C85.03 147.556 66.6633 184.606 29.93 258.796C22.9634 272.775 17.3086 284.537 17.3086 284.898C17.3086 285.487 19.2086 285.577 32.1014 285.487L46.8943 285.351L47.7086 283.768C48.1157 282.908 53.7252 271.598 60.1038 258.66C66.4824 245.722 76.4347 225.546 82.2252 213.875C88.0157 202.158 97.0633 183.837 102.356 173.16C118.732 140.001 132.892 111.411 141.351 94.3105C145.785 85.3082 149.63 78.0248 149.856 78.1606C150.399 78.5225 157.094 91.8225 157.094 92.5915C157.094 92.9534 149.811 107.882 140.854 125.751C85.3919 236.81 61.6419 284.627 61.6419 285.079C61.6419 285.668 94.8919 285.713 181.206 285.26C225.539 285.034 238.658 284.853 238.839 284.446C239.066 283.813 239.02 283.768 231.601 268.975C228.706 263.229 226.037 258.434 225.766 258.298C225.449 258.208 198.17 258.208 165.147 258.344C123.301 258.479 105.07 258.434 105.07 258.072C105.07 257.71 116.335 234.684 117.873 231.97C118.144 231.472 118.732 230.251 119.185 229.256C119.637 228.26 120.361 226.949 120.723 226.315C121.085 225.682 121.582 224.687 121.854 224.053C122.08 223.42 123.98 219.575 126.106 215.458C130.63 206.546 135.289 197.137 146.825 173.839C165.961 135.025 179.804 107.068 180.256 106.208C180.573 105.711 181.116 104.58 181.568 103.72C185.82 94.9891 186.951 92.5463 186.951 91.9582C186.951 91.551 185.142 87.7058 182.97 83.3629C147.051 12.3844 150.173 18.5368 149.63 18.3559C149.358 18.2654 148.408 19.6678 147.504 21.4773Z" fill="black"/>
<path d="M195.003 109.691C194.641 110.279 191.249 116.975 187.494 124.575L180.572 138.418L189.484 156.015C194.37 165.696 200.296 177.368 202.603 181.982C204.956 186.596 206.856 190.577 206.856 190.894C206.856 191.346 201.472 191.482 180.663 191.482H154.47L148.091 204.329C144.563 211.387 141.713 217.313 141.713 217.448C141.713 217.584 159.401 217.72 181.025 217.72C211.922 217.72 220.427 217.856 220.789 218.263C221.241 218.806 224.499 225.229 245.579 266.894L254.989 285.577H269.827C280.865 285.577 284.665 285.441 284.665 285.034C284.665 284.763 283.489 282.139 282.041 279.289C273.401 262.234 254.31 224.415 246.439 208.898C237.12 190.532 224.408 165.379 206.087 129.053C200.477 117.97 195.863 108.877 195.772 108.787C195.727 108.741 195.365 109.149 195.003 109.691Z" fill="black"/>
</svg>
